HIERARCHY
ROOT Hips
{
	OFFSET 0.00 0.00 0.00
	CHANNELS 6 Xposition Yposition Zposition Xrotation Yrotation Zrotation
	JOINT Spine
	{
		OFFSET 0.00000 1.70439 2.55658
		CHANNELS 3 Xrotation Yrotation Zrotation
		JOINT Spine1
		{
			OFFSET 0.00000 0.59193 3.35699
			CHANNELS 3 Xrotation Yrotation Zrotation
			JOINT Spine2
			{
				OFFSET 0.00000 0.29710 3.39581
				CHANNELS 3 Xrotation Yrotation Zrotation
				JOINT Spine3
				{
					OFFSET 0.00000 0.00000 3.40878
					CHANNELS 3 Xrotation Yrotation Zrotation
					JOINT Neck
					{
						OFFSET 0.00000 -1.27828 8.94804
						CHANNELS 3 Xrotation Yrotation Zrotation
						JOINT Head
						{
							OFFSET 0.00000 -0.81390 4.61586
							CHANNELS 3 Xrotation Yrotation Zrotation
							End Site
							{
								OFFSET 0.00000 0.00001 5.51796
							}
						}
					}
					JOINT RightShoulder
					{
						OFFSET -1.18875 -1.98124 6.41925
						CHANNELS 3 Xrotation Yrotation Zrotation
						JOINT RightArm
						{
							OFFSET -5.90412 0.00000 0.00000
							CHANNELS 3 Xrotation Yrotation Zrotation
							JOINT RightForeArm
							{
								OFFSET -11.94674 0.00000 0.00000
								CHANNELS 3 Xrotation Yrotation Zrotation
								JOINT RightHand
								{
									OFFSET -10.17720 0.00000 0.00000
									CHANNELS 3 Xrotation Yrotation Zrotation
									JOINT RightHandEnd
									{
										OFFSET -2.84518 0.00000 0.00000
										CHANNELS 3 Xrotation Yrotation Zrotation
										End Site
										{
											OFFSET -2.84518 0.00000 0.00000
										}
									}
									JOINT RightHandThumb1
									{
										OFFSET -1.13807 -1.89679 -0.75871
										CHANNELS 3 Yrotation Xrotation Zrotation
										End Site
										{
											OFFSET -2.74823 -0.73639 0.00000
										}
									}
								}
							}
						}
					}
					JOINT LeftShoulder
					{
						OFFSET 1.18875 -1.98124 6.41925
						CHANNELS 3 Xrotation Yrotation Zrotation
						JOINT LeftArm
						{
							OFFSET 5.90412 0.00000 0.00000
							CHANNELS 3 Xrotation Yrotation Zrotation
							JOINT LeftForeArm
							{
								OFFSET 11.94674 0.00000 0.00000
								CHANNELS 3 Xrotation Yrotation Zrotation
								JOINT LeftHand
								{
									OFFSET 10.17720 0.00000 0.00000
									CHANNELS 3 Xrotation Yrotation Zrotation
									JOINT LeftHandEnd
									{
										OFFSET 2.84518 0.00000 0.00000
										CHANNELS 3 Xrotation Yrotation Zrotation
										End Site
										{
											OFFSET 2.84518 0.00000 0.00000
										}
									}
									JOINT LeftHandThumb1
									{
										OFFSET 1.13807 -1.89679 -0.75871
										CHANNELS 3 Yrotation Xrotation Zrotation
										End Site
										{
											OFFSET 2.74823 -0.73639 0.00000
										}
									}
								}
							}
						}
					}
				}
			}
		}
	}
	JOINT RightUpLeg
	{
		OFFSET -3.52662 0.00000 -1.03025
		CHANNELS 3 Xrotation Yrotation Zrotation
		JOINT RightLeg
		{
			OFFSET 0.00001 0.00000 -17.80159
			CHANNELS 3 Xrotation Yrotation Zrotation
			JOINT RightFoot
			{
				OFFSET 0.00001 0.00000 -16.85992
				CHANNELS 3 Xrotation Yrotation Zrotation
				JOINT RightToeBase
				{
					OFFSET 0.00000 -5.42953 -1.97619
					CHANNELS 3 Xrotation Yrotation Zrotation
					End Site
					{
						OFFSET 0.00000 -2.85300 -0.00000
					}
				}
			}
		}
	}
	JOINT LeftUpLeg
	{
		OFFSET 3.52662 0.00000 -1.03025
		CHANNELS 3 Xrotation Yrotation Zrotation
		JOINT LeftLeg
		{
			OFFSET 0.00001 0.00000 -17.80159
			CHANNELS 3 Xrotation Yrotation Zrotation
			JOINT LeftFoot
			{
				OFFSET 0.00001 0.00000 -16.85992
				CHANNELS 3 Xrotation Yrotation Zrotation
				JOINT LeftToeBase
				{
					OFFSET 0.00000 -5.42953 -1.97619
					CHANNELS 3 Xrotation Yrotation Zrotation
					End Site
					{
						OFFSET 0.00000 -2.85300 -0.00000
					}
				}
			}
		}
	}
}
MOTION
Frames: 7
Frame Time: 0.008342
 -4.3200 3.4083 40.8747 0.3884 -0.1961 -30.0027 3.7367 0.9018 0.2647 2.1627 0.0501 -0.0237 1.2395 -1.1140 0.2794 0.4684 -0.2645 0.8191 14.7152 -1.2018 -2.9625 7.6820 -1.9351 -3.5195 9.8993 -5.0059 -5.6584 -18.5628 -12.8906 -2.9305 0.0000 0.0000 33.0067 -15.9141 27.5501 2.9645 0.0000 -0.0000 -0.0000 -0.0000 -0.0000 0.0000 12.2761 2.8482 3.8029 -16.7893 31.5252 12.1482 -0.0000 -0.0000 -24.7688 -19.4613 -28.6711 0.8700 -0.0000 0.0000 0.0000 0.0000 -0.0000 -0.0000 -6.6621 8.5424 -20.9825 17.8002 0.0000 0.0000 -0.1626 -7.9930 1.9847 -12.3398 0.0000 -0.0000 -16.5751 -2.3756 7.5019 36.6746 0.0000 0.0000 4.0382 6.7491 11.5060 -16.4544 0.0000 -0.0000
 -4.5108 3.5305 40.7460 0.2018 -0.3250 -26.7613 3.8467 1.2381 0.2430 2.1669 0.1157 -0.0283 1.2211 -1.1676 0.0174 0.4313 -0.2863 0.8402 14.6996 -1.8450 -3.3141 7.6951 -2.0468 -3.7359 9.5204 -5.5802 -6.0596 -19.3691 -12.6697 -3.2087 0.0000 0.0000 33.3407 -16.2968 27.6852 2.8432 0.0000 -0.0000 0.0000 -0.0000 0.0000 0.0000 12.0664 2.7095 3.4551 -15.8339 30.7109 11.2217 -0.0000 -0.0000 -24.8287 -18.6861 -28.1447 1.0125 0.0000 0.0000 -0.0000 0.0000 0.0000 -0.0000 -6.4976 8.9415 -20.1337 17.4163 0.0000 0.0000 1.0586 -7.1477 3.3017 -12.6107 0.0000 -0.0000 -17.0983 -2.4371 6.4950 39.7739 0.0000 0.0000 3.3441 5.9823 12.4047 -16.6830 0.0000 -0.0000
 -4.7079 3.6499 40.5892 0.0259 -0.4630 -23.5239 3.9539 1.5710 0.2173 2.1722 0.1949 -0.0307 1.2251 -1.2236 -0.2406 0.3976 -0.2965 0.8580 14.6517 -2.4877 -3.6496 7.6786 -2.1309 -3.9278 9.1537 -6.1162 -6.4167 -20.1966 -12.4777 -3.5313 0.0000 0.0000 33.5777 -16.7992 27.7937 2.7344 0.0000 -0.0000 0.0000 -0.0000 -0.0000 0.0000 11.7819 2.5938 3.1016 -14.8282 29.7557 10.2714 -0.0000 -0.0000 -24.9084 -17.9437 -27.5458 1.0944 -0.0000 -0.0000 0.0000 0.0000 0.0000 0.0000 -6.3342 9.3870 -19.1820 17.2333 0.0000 0.0000 2.1982 -6.4029 4.4168 -12.8944 0.0000 -0.0000 -17.6581 -2.5456 5.5470 42.9066 0.0000 0.0000 2.8222 5.1666 13.2190 -16.7970 0.0000 -0.0000
 -4.9127 3.7658 40.4050 -0.1325 -0.5879 -20.3050 4.0551 1.8850 0.1910 2.1789 0.2733 -0.0336 1.2543 -1.2741 -0.4819 0.3680 -0.2977 0.8742 14.5827 -3.1197 -3.9683 7.6271 -2.1878 -4.0930 8.8126 -6.6183 -6.7215 -21.0066 -12.2933 -3.8859 0.0000 0.0000 33.7057 -17.4356 27.8661 2.6506 -0.0000 -0.0000 -0.0000 -0.0000 -0.0000 -0.0000 11.4366 2.4993 2.7347 -13.8229 28.6712 9.3296 -0.0000 -0.0000 -25.0086 -17.3005 -26.8764 1.0918 -0.0000 0.0000 0.0000 -0.0000 0.0000 0.0000 -6.1684 9.8451 -18.1161 17.2690 0.0000 0.0000 3.1707 -5.8838 5.2935 -13.1506 0.0000 -0.0000 -18.2466 -2.7371 4.6799 46.0336 0.0000 0.0000 2.4377 4.2901 13.9473 -16.7053 0.0000 -0.0000
 -5.1262 3.8775 40.1940 -0.2693 -0.6687 -17.1188 4.1506 2.1507 0.1666 2.1877 0.3521 -0.0350 1.3078 -1.3213 -0.6985 0.3444 -0.2898 0.8892 14.4987 -3.7330 -4.2650 7.5392 -2.2195 -4.2314 8.5108 -7.0943 -6.9666 -21.7682 -12.0958 -4.2548 0.0000 0.0000 33.7118 -18.1956 27.8899 2.5917 0.0000 -0.0000 0.0000 -0.0000 -0.0000 0.0000 11.0343 2.4208 2.3535 -12.8551 27.4758 8.4233 -0.0000 -0.0000 -25.1342 -16.7909 -26.1436 1.0065 -0.0000 -0.0000 0.0000 0.0000 0.0000 0.0000 -5.9996 10.2673 -16.9398 17.5425 0.0000 0.0000 3.8816 -5.6967 5.8991 -13.3395 0.0000 -0.0000 -18.8550 -3.0519 3.8955 49.1162 0.0000 0.0000 2.1601 3.3596 14.5767 -16.3511 0.0000 -0.0000
 -5.3494 3.9846 39.9572 -0.3855 -0.6712 -13.9761 4.2442 2.3348 0.1470 2.1982 0.4338 -0.0368 1.3849 -1.3670 -0.8830 0.3258 -0.2755 0.9059 14.4039 -4.3179 -4.5416 7.4171 -2.2313 -4.3403 8.2490 -7.5578 -7.1481 -22.4342 -11.8561 -4.6170 0.0000 0.0000 33.5851 -19.0630 27.8660 2.5529 -0.0000 0.0000 -0.0000 -0.0000 -0.0000 0.0000 10.5852 2.3538 1.9529 -11.9526 26.1906 7.5707 -0.0000 -0.0000 -25.2847 -16.4369 -25.3675 0.8357 -0.0000 -0.0000 0.0000 0.0000 0.0000 -0.0000 -5.8322 10.5956 -15.6719 18.0729 0.0000 0.0000 4.2333 -5.9126 6.1998 -13.4300 0.0000 -0.0000 -19.4736 -3.5275 3.1775 52.1128 0.0000 0.0000 1.9673 2.4026 15.0844 -15.7259 0.0000 -0.0000
 -5.5825 4.0870 39.6959 -0.4886 -0.5642 -10.8872 4.3410 2.4089 0.1343 2.2117 0.5162 -0.0376 1.4801 -1.4120 -1.0313 0.3125 -0.2557 0.9210 14.2957 -4.8621 -4.7887 7.2675 -2.2338 -4.4244 8.0282 -8.0141 -7.2662 -22.9755 -11.5644 -4.9504 0.0000 0.0000 33.3200 -20.0048 27.7978 2.5253 0.0000 0.0000 -0.0000 -0.0000 0.0000 0.0000 10.0846 2.2946 1.5374 -11.1326 24.8402 6.7878 -0.0000 -0.0000 -25.4661 -16.2354 -24.5684 0.5929 0.0000 0.0000 -0.0000 0.0000 0.0000 -0.0000 -5.6765 10.7736 -14.3573 18.8779 0.0000 0.0000 4.1343 -6.5498 6.1760 -13.4039 0.0000 -0.0000 -20.0914 -4.1912 2.5000 54.9796 0.0000 0.0000 1.8437 1.4681 15.4432 -14.8751 0.0000 -0.0000
